<svg width="45" height="17" viewBox="0 0 45 17" fill="none" xmlns="http://www.w3.org/2000/svg">
<path id="Union" fill-rule="evenodd" clip-rule="evenodd" d="M10.1429 9.95448L12.2185 2.60282C12.57 1.35745 13.6857 0.5 14.954 0.5H19.9301V16.5H14.9475V7.04552H14.5917L11.7444 16.5H8.18549L5.33822 7.04552H4.98241V16.5H0V0.5H4.97588C6.24446 0.5 7.35986 1.35745 7.71141 2.60282L9.78704 9.95448H10.1429ZM27.0858 16.4552H22.1191V0.617188H27.0858V16.4552ZM41.3008 11.099L44.8241 16.4613H39.148L36.5451 11.4198H34.1715V16.4593H29.2148V7.82031H44.5147C43.983 9.34412 42.7976 10.5515 41.3008 11.099ZM28.502 0.617188C29.1693 4.30277 32.3481 7.09643 36.1734 7.09643H44.7139C44.7835 6.74747 44.8208 6.38633 44.8208 6.01655C44.8208 3.03471 42.4382 0.617188 39.4994 0.617188H28.502Z" fill="#3CA436"/>
</svg>
