<svg width="35" height="21" viewBox="0 0 35 21" fill="none" xmlns="http://www.w3.org/2000/svg">
<rect width="35" height="21" fill="#1E1E1E"/>
<g id="Duckstore">
<rect width="6219" height="3553" transform="translate(-2717 -1123)" fill="#2B2B2B"/>
<g id="&#208;&#186;&#208;&#176;&#209;&#128;&#209;&#130;&#208;&#190;&#209;&#135;&#208;&#186;&#208;&#176;" clip-path="url(#clip0_0_1)">
<rect width="375" height="937" transform="translate(-65 -824)" fill="#F3F5F7"/>
<g id="touch / podval">
<g id="Frame 2087326349">
<g id="Group 2087326009">
<g id="Group 2087326008">
<path id="Oval" d="M9.99996 20.5C15.5228 20.5 19.9999 16.0228 19.9999 10.5C19.9999 4.97715 15.5228 0.5 9.99996 0.5C4.47713 0.5 0 4.97715 0 10.5C0 16.0228 4.47713 20.5 9.99996 20.5Z" fill="#EB001B"/>
<path id="Oval_2" d="M24.2832 20.5C29.806 20.5 34.2831 16.0228 34.2831 10.5C34.2831 4.97715 29.806 0.5 24.2832 0.5C18.7603 0.5 14.2832 4.97715 14.2832 10.5C14.2832 16.0228 18.7603 20.5 24.2832 20.5Z" fill="#F79E1B"/>
<path id="Combined Shape" fill-rule="evenodd" clip-rule="evenodd" d="M17.1396 3.49829C15.3726 5.30185 14.2832 7.77175 14.2832 10.4961C14.2832 13.2204 15.3726 15.6903 17.1396 17.4939C18.9066 15.6903 19.996 13.2204 19.996 10.4961C19.996 7.77175 18.9066 5.30185 17.1396 3.49829Z" fill="#FF5F00"/>
</g>
</g>
</g>
</g>
</g>
</g>
<defs>
<clipPath id="clip0_0_1">
<rect width="375" height="937" fill="white" transform="translate(-65 -824)"/>
</clipPath>
</defs>
</svg>
