<svg width="24" height="24" viewBox="0 0 24 24" fill="none" xmlns="http://www.w3.org/2000/svg">
<path fill-rule="evenodd" clip-rule="evenodd" d="M20 6C21.1046 6 22 6.89543 22 8V12.1529C22 13.1306 21.2932 13.9649 20.3288 14.1257L10.0558 15.8378C9.04335 16.0066 8.06753 15.3815 7.79746 14.3913L5.2362 5H3C2.44772 5 2 4.55228 2 4C2 3.44772 2.44772 3 3 3H5.2362C6.13811 3 6.92843 3.60364 7.16573 4.47377L7.58198 6H20ZM20 12.1529L9.72699 13.865L8.12743 8H20V12.1529Z" fill="black" fill-opacity="0.86"/>
<path d="M9 19C9 20.1046 8.10457 21 7 21C5.89543 21 5 20.1046 5 19C5 17.8954 5.89543 17 7 17C8.10457 17 9 17.8954 9 19Z" fill="black" fill-opacity="0.86"/>
<path d="M19 19C19 20.1046 18.1046 21 17 21C15.8954 21 15 20.1046 15 19C15 17.8954 15.8954 17 17 17C18.1046 17 19 17.8954 19 19Z" fill="black" fill-opacity="0.86"/>
</svg>
