<svg width="70" height="28" viewBox="0 0 70 28" fill="none" xmlns="http://www.w3.org/2000/svg">
<path d="M44.1116 4.34375V23.1667H40.8392V6.88958H34.9976V23.1667H31.7252V4.34375H44.1116Z" fill="black" fill-opacity="0.86"/>
<path d="M49.5912 23.4375C48.1488 23.4375 47.04 23.1576 46.2648 22.5979V19.9708C46.6794 20.2597 47.1302 20.4854 47.617 20.6479C48.1218 20.8104 48.7168 20.8917 49.4019 20.8917C50.4296 20.8917 51.2049 20.5938 51.7277 19.9979C52.2506 19.384 52.5751 18.5444 52.7013 17.4792H47.9686V14.9333H52.6743C52.3678 12.8569 51.304 11.8187 49.483 11.8187C48.9241 11.8187 48.3652 11.909 47.8063 12.0896C47.2654 12.2701 46.8327 12.4597 46.5082 12.6583V9.92292C46.8507 9.74236 47.3105 9.58889 47.8874 9.4625C48.4644 9.33611 49.1585 9.27292 49.9698 9.27292C50.9795 9.27292 51.8629 9.45347 52.6202 9.81458C53.3955 10.1576 54.0355 10.6451 54.5403 11.2771C55.0632 11.891 55.4508 12.6403 55.7033 13.525C55.9737 14.3917 56.1089 15.3396 56.1089 16.3687C56.1089 18.6618 55.568 20.4132 54.4863 21.6229C53.4225 22.8326 51.7908 23.4375 49.5912 23.4375Z" fill="black" fill-opacity="0.86"/>
<path d="M63.7578 7.75625C62.4597 7.75625 61.4771 7.43125 60.81 6.78125C60.1609 6.13125 59.8364 5.31875 59.8364 4.34375H62.5408C62.5408 4.81319 62.649 5.15625 62.8654 5.37292C63.0998 5.58958 63.3972 5.69792 63.7578 5.69792C64.1004 5.69792 64.3708 5.58958 64.5692 5.37292C64.7675 5.1382 64.8667 4.79514 64.8667 4.34375H67.5711C67.5711 4.81319 67.49 5.25556 67.3277 5.67083C67.1654 6.08611 66.922 6.44722 66.5975 6.75417C66.291 7.06111 65.8943 7.30486 65.4075 7.48542C64.9388 7.66597 64.3889 7.75625 63.7578 7.75625ZM61.3779 9.54375V17.9938L66.3 9.54375H69.1667V23.1667H66.0566V14.7438L61.1345 23.1667H58.2678V9.54375H61.3779Z" fill="black" fill-opacity="0.86"/>
<rect y="1.5" width="25" height="25" rx="12.5" fill="black" fill-opacity="0.86"/>
<path d="M14.2616 21.5125H16.8731V6.51245H13.0745C9.25437 6.51245 7.24718 8.47648 7.24718 11.3686C7.24718 13.6779 8.3479 15.0376 10.3119 16.4405L6.90186 21.5125H9.72919L13.5278 15.8362L12.2112 14.9513C10.6141 13.8722 9.83711 13.0304 9.83711 11.2175C9.83711 9.62037 10.9594 8.54123 13.0961 8.54123H14.2616V21.5125Z" fill="white"/>
</svg>
