<svg width="49" height="17" viewBox="0 0 49 17" fill="none" xmlns="http://www.w3.org/2000/svg">
<path fill-rule="evenodd" clip-rule="evenodd" d="M25.0856 5.61491C25.1076 2.60351 27.8346 0.5 31.7086 0.5C33.2193 0.5 34.4321 0.836263 35.3759 1.18595L34.6871 4.46744C32.9329 3.64261 31.3839 3.70054 30.8227 3.77477C29.6899 3.92631 29.1728 4.51635 29.1603 5.0711C29.1221 6.8959 34.6691 7.12128 34.6518 11.205C34.6387 14.4232 31.9459 16.5 27.8277 16.5C26.0747 16.4812 24.3839 16.107 23.4689 15.6779L24.1785 12.2866C25.09 12.7205 26.2338 13.2956 28.2041 13.2642C29.3323 13.2463 30.5391 12.7886 30.5505 11.7499C30.5564 11.0718 30.0442 10.5852 28.5177 9.82692C27.0319 9.08592 25.0601 7.84407 25.0856 5.61491ZM41.9997 0.78125H45.345L48.5094 16.2562H44.8843L44.4106 13.9442H39.3824L38.5646 16.2562H34.4492L40.3311 1.91626C40.6124 1.228 41.2469 0.78125 41.9997 0.78125ZM42.5751 4.96484L40.5117 10.7753H43.7627L42.5751 4.96484ZM20.1019 0.78125H24.0207L20.7792 16.2562H16.8594L20.1019 0.78125ZM14.3002 0.78125H18.4171L12.0665 16.2562H7.92348L4.79812 3.90621C4.60841 3.14602 4.44407 2.86692 3.86708 2.54696C2.92477 2.02444 1.36885 1.53415 0 1.22992L0.0924087 0.78125H6.76236C7.61189 0.78125 8.37689 1.35882 8.57016 2.3586L10.2204 11.3138L14.3002 0.78125Z" fill="#067AFF"/>
</svg>
