<svg width="75" height="30" viewBox="0 0 75 30" fill="none" xmlns="http://www.w3.org/2000/svg">
<path d="M47.4601 4.81V24.4862H44.0394V7.47124H37.933V24.4862H34.5123V4.81H47.4601Z" fill="black" fill-opacity="0.86"/>
<path d="M53.1882 24.7693C51.6804 24.7693 50.5213 24.4768 49.7109 23.8917V21.1455C50.1444 21.4475 50.6156 21.6834 51.1245 21.8533C51.6522 22.0232 52.2741 22.1081 52.9903 22.1081C54.0646 22.1081 54.875 21.7967 55.4216 21.1738C55.9681 20.5321 56.3074 19.6545 56.4393 18.5409H51.492V15.8796H56.411C56.0906 13.7091 54.9787 12.6239 53.0751 12.6239C52.4909 12.6239 51.9066 12.7182 51.3223 12.907C50.7569 13.0957 50.3046 13.2939 49.9654 13.5015V10.6421C50.3235 10.4533 50.8041 10.2929 51.4072 10.1608C52.0103 10.0287 52.7359 9.96262 53.584 9.96262C54.6394 9.96262 55.5629 10.1514 56.3545 10.5288C57.1649 10.8874 57.834 11.3971 58.3617 12.0576C58.9082 12.6994 59.3134 13.4826 59.5773 14.4075C59.86 15.3134 60.0014 16.3043 60.0014 17.3801C60.0014 19.7771 59.436 21.6079 58.3051 22.8725C57.1932 24.137 55.4875 24.7693 53.1882 24.7693Z" fill="black" fill-opacity="0.86"/>
<path d="M67.997 8.3772C66.64 8.3772 65.6129 8.03747 64.9156 7.358C64.2371 6.67853 63.8978 5.8292 63.8978 4.81H66.7249C66.7249 5.30072 66.8379 5.65933 67.0641 5.88582C67.3091 6.11231 67.6201 6.22555 67.997 6.22555C68.3551 6.22555 68.6378 6.11231 68.8451 5.88582C69.0525 5.64046 69.1561 5.28185 69.1561 4.81H71.9832C71.9832 5.30072 71.8983 5.76314 71.7287 6.19724C71.5591 6.63135 71.3047 7.00883 70.9654 7.32969C70.645 7.65055 70.2304 7.90535 69.7215 8.09409C69.2315 8.28283 68.6567 8.3772 67.997 8.3772ZM65.5092 10.2457V19.0788L70.6544 10.2457H73.6511V24.4862H70.4V15.6815L65.2548 24.4862H62.2581V10.2457H65.5092Z" fill="black" fill-opacity="0.86"/>
<g clip-path="url(#clip0_10_79)">
<ellipse cx="14.3968" cy="14.904" rx="13.0479" ry="13.0667" fill="#FC3F1D"/>
<path d="M16.2356 22.7571H18.9616V7.07709H14.9966C11.009 7.07709 8.9138 9.13015 8.9138 12.1533C8.9138 14.5674 10.0628 15.9887 12.1129 17.4552L8.55334 22.7571H11.5046L15.4697 16.8235L14.0954 15.8985C12.4283 14.7704 11.6173 13.8906 11.6173 11.9954C11.6173 10.3259 12.7887 9.19784 15.0191 9.19784H16.2356V22.7571Z" fill="white"/>
</g>
<defs>
<clipPath id="clip0_10_79">
<rect x="1.34888" y="1.83734" width="26.0958" height="26.1333" rx="13.0479" fill="white"/>
</clipPath>
</defs>
</svg>
