<svg width="117" height="20" viewBox="0 0 117 20" fill="none" xmlns="http://www.w3.org/2000/svg">
<path d="M0.957642 0.442353H6.10823C7.66117 0.442353 9.01568 0.709804 10.1718 1.2447C11.3451 1.77961 12.251 2.68549 12.8894 3.96235C13.5278 5.23922 13.8471 6.98196 13.8471 9.19059C13.8471 12.5035 13.131 14.971 11.6988 16.5929C10.2839 18.1976 8.35999 19 5.92705 19H0.957642V0.442353ZM5.97882 15.8165C7.06588 15.8165 7.90274 15.2902 8.48941 14.2376C9.07607 13.1851 9.36941 11.5545 9.36941 9.34588C9.36941 7.86196 9.24 6.71451 8.98117 5.90353C8.7396 5.07529 8.37725 4.48863 7.89411 4.14353C7.41098 3.79843 6.83294 3.62588 6.16 3.62588H5.38352V15.8165H5.97882Z" fill="black" fill-opacity="0.86"/>
<path d="M15.2101 13.0729V0.442353H19.636V13.3059C19.636 14.2894 19.7999 14.9796 20.1278 15.3765C20.4556 15.7561 20.9646 15.9459 21.6548 15.9459C22.3278 15.9459 22.8195 15.7561 23.1301 15.3765C23.458 14.9796 23.6219 14.2894 23.6219 13.3059V0.442353H27.0384V12.7365C27.0384 14.9796 26.538 16.6275 25.5372 17.68C24.5364 18.7326 23.087 19.2588 21.1889 19.2588C19.9811 19.2588 18.9199 19.0518 18.0054 18.6376C17.1082 18.2235 16.418 17.5678 15.9348 16.6706C15.4517 15.7561 15.2101 14.5569 15.2101 13.0729Z" fill="black" fill-opacity="0.86"/>
<path d="M36.1886 19.2588C33.7039 19.2588 31.7886 18.4392 30.4427 16.8C29.0968 15.1608 28.4239 12.8055 28.4239 9.73412C28.4239 6.69726 29.1054 4.35059 30.4686 2.69412C31.8317 1.03765 33.7384 0.209412 36.1886 0.209412C36.7752 0.209412 37.3533 0.261176 37.9227 0.364705C38.5094 0.45098 38.9666 0.563137 39.2945 0.701176V4.01412C38.4662 3.70353 37.6552 3.54824 36.8615 3.54824C34.256 3.54824 32.9533 5.6102 32.9533 9.73412C32.9533 11.8565 33.2639 13.4267 33.8851 14.4447C34.5062 15.4455 35.4639 15.9459 36.758 15.9459C37.2239 15.9459 37.6898 15.9027 38.1556 15.8165C38.6388 15.7129 39.0184 15.5835 39.2945 15.4282V18.7153C38.9666 18.8878 38.5266 19.0173 37.9745 19.1035C37.4223 19.2071 36.827 19.2588 36.1886 19.2588Z" fill="black" fill-opacity="0.86"/>
<path d="M53.9146 19H48.9969L45.2181 10.5106V19H40.7922V0.442353H45.2181V9.26824L49.1522 0.442353H53.0087L49.2299 8.82824L53.9146 19Z" fill="black" fill-opacity="0.86"/>
<path d="M58.702 19.2588C57.9083 19.2588 57.1577 19.1812 56.4502 19.0259C55.7428 18.8878 55.1475 18.698 54.6643 18.4565V15.04C55.182 15.3333 55.7514 15.5663 56.3726 15.7388C56.9937 15.9114 57.6236 15.9976 58.262 15.9976C59.1765 15.9976 59.8581 15.8251 60.3067 15.48C60.7553 15.1349 60.9796 14.669 60.9796 14.0824C60.9796 13.7027 60.9279 13.3922 60.8243 13.1506C60.7208 12.909 60.4706 12.6675 60.0737 12.4259C59.6769 12.1843 59.0557 11.8824 58.2102 11.52C57.1059 11.0541 56.269 10.5537 55.6996 10.0188C55.1475 9.46667 54.7765 8.86275 54.5867 8.20706C54.3969 7.53412 54.302 6.80078 54.302 6.00706C54.302 4.28157 54.8196 2.88392 55.8549 1.81412C56.8902 0.744313 58.4777 0.209412 60.6173 0.209412C61.273 0.209412 61.92 0.261176 62.5585 0.364705C63.2141 0.468234 63.7404 0.606273 64.1373 0.778822V4.14353C63.6887 3.93647 63.171 3.77255 62.5843 3.65176C62.0149 3.53098 61.48 3.47059 60.9796 3.47059C60.1341 3.47059 59.4698 3.62588 58.9867 3.93647C58.5208 4.2298 58.2879 4.68706 58.2879 5.30823C58.2879 5.58431 58.3224 5.82588 58.3914 6.03294C58.4777 6.22274 58.7192 6.43843 59.1161 6.68C59.5302 6.92157 60.2118 7.23216 61.1608 7.61176C62.3169 8.0949 63.171 8.62118 63.7232 9.19059C64.2926 9.76 64.6549 10.3812 64.8102 11.0541C64.9828 11.7271 65.069 12.4431 65.069 13.2024C65.069 14.3239 64.8361 15.342 64.3702 16.2565C63.9216 17.171 63.2228 17.9043 62.2737 18.4565C61.342 18.9914 60.1514 19.2588 58.702 19.2588Z" fill="black" fill-opacity="0.86"/>
<path d="M65.0417 3.62588V0.442353H77.0253V3.62588H73.2465V19H68.8206V3.62588H65.0417Z" fill="black" fill-opacity="0.86"/>
<path d="M83.9163 19.2588C82.5359 19.2588 81.3194 18.9482 80.2668 18.3271C79.2143 17.7059 78.3947 16.7137 77.808 15.3506C77.2213 13.9702 76.928 12.1584 76.928 9.91529C76.928 7.6549 77.2213 5.81726 77.808 4.40235C78.4119 2.9702 79.2402 1.91765 80.2927 1.2447C81.3453 0.554509 82.5531 0.209412 83.9163 0.209412C85.2449 0.209412 86.4355 0.528627 87.488 1.16706C88.5578 1.80549 89.3947 2.82353 89.9986 4.22118C90.6198 5.60157 90.9304 7.41333 90.9304 9.65647C90.9304 11.9169 90.6198 13.7545 89.9986 15.1694C89.3947 16.5843 88.5578 17.6196 87.488 18.2753C86.4355 18.931 85.2449 19.2588 83.9163 19.2588ZM83.9163 15.9976C84.4339 15.9976 84.8825 15.8165 85.2621 15.4541C85.6417 15.0745 85.9264 14.4361 86.1162 13.5388C86.3233 12.6243 86.4268 11.3647 86.4268 9.76C86.4268 8.15529 86.3233 6.90431 86.1162 6.00706C85.9264 5.09255 85.6417 4.44549 85.2621 4.06588C84.8825 3.68627 84.4339 3.49647 83.9163 3.49647C83.3986 3.49647 82.95 3.68627 82.5704 4.06588C82.208 4.44549 81.9319 5.08392 81.7421 5.98118C81.5523 6.87843 81.4574 8.12941 81.4574 9.73412C81.4574 11.3388 81.5523 12.5984 81.7421 13.5129C81.9319 14.4275 82.208 15.0745 82.5704 15.4541C82.95 15.8165 83.3986 15.9976 83.9163 15.9976Z" fill="black" fill-opacity="0.86"/>
<path d="M92.4811 0.442353H97.9423C99.9438 0.442353 101.471 0.92549 102.523 1.89176C103.576 2.84078 104.102 4.33333 104.102 6.36941C104.102 7.64627 103.912 8.69882 103.533 9.52706C103.153 10.3553 102.618 10.9851 101.928 11.4165L105.008 19H100.168L97.7093 12.3224H96.907V19H92.4811V0.442353ZM97.7352 9.26824C98.4081 9.26824 98.8999 9.01804 99.2105 8.51765C99.5211 8.01725 99.6764 7.24941 99.6764 6.21412C99.6764 4.3851 99.0379 3.47059 97.7611 3.47059H96.907V9.26824H97.7352Z" fill="black" fill-opacity="0.86"/>
<path d="M106.029 0.442353H116.097V3.62588H110.455V7.84471H115.165V11.0282H110.455V15.8165H116.201V19H106.029V0.442353Z" fill="black" fill-opacity="0.86"/>
</svg>
